<svg width="463" height="404" viewBox="0 0 463 404" fill="none" xmlns="http://www.w3.org/2000/svg">
<path d="M56.9714 386.847C56.5227 386.867 56.0785 386.749 55.699 386.509C55.3195 386.269 55.0231 385.918 54.8498 385.504C54.6765 385.09 54.6348 384.633 54.7303 384.194C54.8258 383.756 55.054 383.357 55.3838 383.053L55.5339 382.456C55.5141 382.409 55.4942 382.361 55.4743 382.313C55.0222 381.246 54.2648 380.337 53.2971 379.699C52.3294 379.061 51.1945 378.722 50.0351 378.727C48.8757 378.731 47.7434 379.078 46.7805 379.723C45.8175 380.368 45.0669 381.283 44.6228 382.353C42.848 386.625 40.5883 390.903 40.0319 395.419C39.7869 397.416 39.8903 399.439 40.3375 401.4C36.1689 392.314 34.0043 382.439 33.9904 372.443C33.9895 369.935 34.129 367.429 34.4081 364.936C34.6388 362.893 34.9589 360.864 35.3683 358.849C37.6026 347.919 42.3996 337.675 49.3655 328.958C52.7369 327.12 55.4635 324.293 57.1777 320.859C57.7987 319.624 58.2376 318.306 58.4808 316.946C58.1005 316.996 57.0468 311.208 57.3336 310.853C56.8036 310.05 55.855 309.65 55.2761 308.866C52.3972 304.966 48.4309 305.647 46.3603 310.947C41.937 313.177 41.8942 316.877 44.6083 320.435C46.335 322.699 46.5723 325.762 48.0874 328.185C47.9314 328.384 47.7693 328.578 47.6135 328.777C44.7641 332.438 42.2807 336.369 40.1989 340.514C40.7051 335.871 40.1009 331.173 38.4358 326.808C36.7482 322.74 33.5852 319.314 30.7998 315.798C27.454 311.574 20.5931 313.417 20.0037 318.772C19.998 318.824 19.9924 318.876 19.987 318.927C20.4007 319.161 20.8057 319.408 21.2019 319.67C21.6998 320.002 22.0855 320.477 22.3086 321.032C22.5317 321.587 22.5818 322.197 22.4523 322.781C22.3228 323.365 22.0198 323.896 21.5829 324.306C21.146 324.715 20.5956 324.982 20.0039 325.073L19.9433 325.083C20.0907 326.573 20.3513 328.049 20.7227 329.5C17.1493 343.308 24.864 348.338 35.8795 348.564C36.1227 348.688 36.3596 348.813 36.6028 348.931C34.5112 354.854 33.1991 361.024 32.6998 367.285C32.417 370.979 32.4337 374.689 32.7496 378.38L32.7309 378.25C31.9328 374.145 29.7415 370.442 26.5272 367.764C21.7532 363.846 15.0083 362.403 9.85792 359.253C9.31056 358.902 8.67412 358.714 8.02366 358.713C7.37319 358.711 6.73584 358.895 6.18678 359.244C5.63771 359.592 5.19983 360.09 4.92477 360.679C4.64972 361.268 4.54897 361.924 4.63441 362.568C4.64131 362.614 4.64834 362.66 4.65548 362.706C5.42325 363.018 6.17079 363.378 6.89376 363.783C7.30749 364.017 7.71248 364.264 8.10874 364.526C8.60654 364.858 8.99226 365.333 9.21536 365.888C9.43847 366.444 9.48856 367.053 9.35906 367.637C9.22956 368.221 8.92652 368.753 8.48963 369.162C8.05275 369.571 7.50241 369.838 6.91071 369.929L6.85008 369.939C6.80645 369.945 6.76902 369.951 6.72545 369.957C8.03728 373.087 9.87849 375.968 12.1684 378.474C14.4028 390.528 23.9994 391.672 34.2647 388.161H34.2709C35.3972 393.052 37.0291 397.812 39.1404 402.366H56.5355C56.5979 402.173 56.654 401.973 56.7101 401.78C55.1 401.881 53.4835 401.785 51.8968 401.494C53.1874 399.911 54.478 398.316 55.7686 396.734C55.7974 396.704 55.8245 396.673 55.8497 396.64C56.5044 395.831 57.1653 395.027 57.8199 394.217L57.8202 394.216C57.8551 391.733 57.57 389.257 56.972 386.847L56.9714 386.847H56.9714Z" fill="#F2F2F2"/>
<path d="M76.979 401.977H105.049C109.85 385.824 105.075 347.651 111.403 332.048C123.543 302.132 139.053 270.566 168.002 255.959C180.362 249.722 193.838 247.286 207.602 247.418C226.614 247.599 246.161 252.698 264.057 259.457C271.378 262.215 278.631 265.249 285.857 268.348C313.078 280.036 340.002 292.767 369.275 296.207C406.317 300.558 449.869 283.998 459.986 248.328C467.707 221.019 453.801 192.667 439.217 168.277C424.633 143.888 408.331 117.792 410.994 89.5533C411.004 89.4585 411.013 89.3542 411.032 89.2594C412.035 79.1167 418.095 71.8275 426.561 67.1543H389.7C389.214 93.4967 404.466 116.749 418.191 139.707C432.775 164.088 446.681 192.449 438.959 219.758C428.842 255.419 345.068 213.617 308.026 209.257C297.565 208.034 314.182 212.385 304.208 209.257C288.564 204.356 286.83 249.305 271.607 242.707C262.129 238.593 252.642 234.508 243.031 230.877C239.051 229.37 234.985 227.958 230.871 226.65C230.867 226.649 230.864 226.649 230.86 226.647C230.857 226.645 230.854 226.643 230.852 226.64C203.23 217.901 173.022 214.497 147.5 227.133C147.328 227.218 147.147 227.304 146.975 227.389C118.027 241.987 102.517 273.552 90.3764 303.468C80.3452 328.199 81.923 375.89 76.979 401.976L76.979 401.977Z" fill="#F2F2F2"/>
<path d="M243.373 401.149C106.379 404.048 103.375 344.087 103.375 272.766C103.375 201.445 165.845 145.653 243.258 145.653C320.671 145.653 382.152 201.425 382.152 272.744C382.152 344.063 320.786 401.149 243.373 401.149Z" fill="white"/>
<path d="M242.592 401.929C105.599 404.828 102.595 344.866 102.595 273.546C102.595 202.225 165.575 144.203 242.988 144.203C320.401 144.203 383.381 202.227 383.381 273.546C383.381 344.865 320.005 401.929 242.592 401.929ZM242.988 147.763C167.704 147.763 107.725 204.198 106.458 273.546C105.278 338.047 179.655 418.536 242.988 399.331C276.951 364.869 372.976 327.753 379.518 273.546C387.837 204.613 318.271 147.763 242.988 147.763L242.988 147.763Z" fill="#3F3D56"/>
<path d="M3.39124e-06 402.004C-0.000296641 402.136 0.0193146 402.266 0.057709 402.387C0.0961034 402.509 0.152523 402.619 0.223723 402.712C0.294922 402.805 0.379496 402.879 0.472579 402.929C0.565661 402.979 0.665416 403.005 0.766104 403.004H461.234C461.437 403.004 461.632 402.899 461.776 402.711C461.919 402.524 462 402.27 462 402.004C462 401.739 461.919 401.485 461.776 401.297C461.632 401.11 461.437 401.004 461.234 401.004H0.766104C0.665417 401.004 0.565663 401.029 0.472582 401.08C0.3795 401.13 0.294927 401.203 0.223728 401.296C0.152529 401.389 0.0961095 401.5 0.0577142 401.621C0.0193189 401.743 -0.000294078 401.873 3.39124e-06 402.004V402.004Z" fill="#CCCCCC"/>
<path d="M339.086 390.201H329.447L324.862 353.052L339.088 353.053L339.086 390.201Z" fill="#A0616A"/>
<path d="M339.425 400.248L309.786 400.247V399.873C309.786 396.816 311.002 393.884 313.165 391.722C315.329 389.56 318.263 388.346 321.322 388.345H321.323L326.737 384.241L336.838 388.346L339.426 388.346L339.425 400.248V400.248Z" fill="#2F2E41"/>
<path d="M324.441 304.092C313.434 293.412 300.785 284.564 286.976 277.886L279.932 285.831L284.418 276.678C265.935 268.244 245.87 263.827 225.551 263.72C205.232 263.612 185.121 267.817 166.55 276.055L170.209 283.998L164.59 276.939C150.083 283.682 136.808 292.802 125.313 303.922C124.131 305.022 123.401 306.522 123.265 308.13C123.206 309.004 123.335 309.88 123.644 310.7C123.953 311.519 124.435 312.263 125.057 312.88C126.828 313.718 129.351 315.64 133.101 320.918C134.251 322.051 135.799 322.691 137.414 322.701C139.029 322.71 140.584 322.09 141.748 320.971C164.017 299.431 193.796 287.388 224.789 287.388C255.783 287.388 285.562 299.431 307.831 320.971C308.994 322.09 310.55 322.711 312.165 322.701C313.78 322.691 315.327 322.051 316.477 320.918C320.251 317.526 321.132 312.733 324.374 313.027C325.515 311.924 326.208 310.437 326.318 308.854C326.366 307.972 326.223 307.09 325.899 306.268C325.575 305.446 325.078 304.704 324.441 304.092V304.092Z" fill="#6B52DB"/>
<path d="M250.956 315.652L241.318 315.651L236.733 278.503L250.958 278.504L250.956 315.652Z" fill="#A0616A"/>
<path d="M251.295 325.699L221.656 325.698V325.323C221.656 322.266 222.872 319.334 225.035 317.172C227.199 315.01 230.133 313.796 233.192 313.796H233.193L238.607 309.692L248.708 313.796L251.296 313.796L251.295 325.699V325.699Z" fill="#2F2E41"/>
<path d="M349.999 179.004L281.597 186.145L264.79 202.739L238.056 211.462C234.69 212.56 231.74 214.659 229.6 217.478C227.46 220.297 226.233 223.701 226.083 227.236C225.387 243.529 224.012 270.578 222.56 270.295C220.484 269.89 224.634 280.026 227.54 279.438C230.447 278.849 233.469 285.459 231.46 286.634C229.451 287.809 232.798 297.862 232.798 297.862L253.735 294.491C256.356 274.738 265.928 253.918 254.646 239.385C273.752 233.19 290.583 228.009 302.959 224.816L309.652 222.041L323.549 369.585L343.202 369.908C348.625 342.033 351.349 316.945 347.11 299.048C347.11 299.048 347.719 245.283 350.044 245.871C352.368 246.458 350.397 239.454 350.397 239.454C350.397 239.454 348.362 233.489 350.863 231.014C353.364 228.54 351.802 213.985 351.802 213.985C355.935 200.21 354.691 188.837 349.999 179.004V179.004Z" fill="#2F2E41"/>
<path d="M358.193 148.774C358.87 145.739 359.548 142.703 360.225 139.666C362.128 131.164 364.027 122.666 365.924 114.171C368.414 103.042 370.915 91.5244 368.773 80.3246C368.452 78.6402 368.002 76.9828 367.428 75.3669C364.22 66.1986 357.137 58.1648 347.742 56.4729L346.208 50.7584L325.246 48.1802L321.279 53.6472C312.74 52.965 307.671 61.461 301.781 68.4623L299.44 70.8014C297.734 72.9334 297.384 80.9429 296.319 83.2766C291.582 93.6541 298.109 83.569 297.879 94.9721C297.641 106.789 295.316 118.255 295.078 130.071C295.052 131.339 292.322 132.305 291.852 134.528C291.598 135.728 293.714 137.953 293.393 139.295C293.119 140.439 294.486 145.04 294.193 146.224C292.832 151.713 289.75 153.874 289.615 156.581C289.554 157.622 289.398 158.656 289.151 159.67C288.983 160.39 286.62 159.527 286.39 160.258C286.003 161.486 287.704 164.313 287.238 165.541C286.336 167.919 286.943 172.12 286.39 174.293C284.07 183.416 284.961 179.796 279.932 187.756C292.803 191.644 298.362 204.665 311.601 207.008C312.198 205.081 312.792 203.149 313.386 201.212C315.14 201.324 316.906 201.429 318.672 201.526C318.771 203.208 318.871 204.891 318.97 206.563C332.39 207.427 345.85 207.501 359.279 206.782C358.829 205.434 358.469 204.057 358.203 202.661C357.466 198.778 359.05 194.567 359.219 190.724C359.339 187.877 357.984 185.458 358.024 182.392C358.033 181.825 361.222 181.348 361.212 180.77C361.162 175.673 358.263 168.853 359.219 163.846C360.215 158.7 357.057 153.892 358.193 148.776V148.774L358.193 148.774Z" fill="#3F3D56"/>
<path d="M260.143 25.6605C258.366 25.6626 256.662 26.3689 255.406 27.6246C254.149 28.8803 253.442 30.5828 253.44 32.3587V72.7188C253.442 74.4946 254.149 76.1971 255.406 77.4528C256.662 78.7085 258.366 79.4149 260.143 79.417H272.64C274.417 79.4149 276.121 78.7085 277.377 77.4528C278.634 76.1971 279.341 74.4946 279.343 72.7188C281.334 52.4389 280.603 41.4943 279.343 32.3587C279.341 30.5828 278.634 28.8803 277.377 27.6246C276.121 26.3689 274.417 25.6626 272.64 25.6605H260.143V25.6605Z" fill="#6B52DB"/>
<path d="M258.583 25.6605C256.806 25.6626 255.102 26.3689 253.845 27.6246C252.589 28.8803 251.882 30.5827 251.88 32.3585C251.162 48.2236 250.663 63.3539 251.88 72.7187C251.881 74.4945 252.588 76.1971 253.845 77.4529C255.102 78.7086 256.806 79.415 258.583 79.417H271.079C272.856 79.4149 274.56 78.7086 275.817 77.4529C277.073 76.1972 277.78 74.4946 277.782 72.7188V32.3587C277.78 30.5829 277.073 28.8804 275.817 27.6247C274.56 26.369 272.856 25.6626 271.079 25.6606L258.583 25.6605Z" fill="#3F3D56"/>
<path d="M290.752 84.4005C290.752 84.4005 302.571 83.9215 296.556 89.0207C292.641 92.3389 283.826 115.44 274.668 118.234C273.589 118.563 272.454 118.664 271.335 118.531C270.216 118.398 269.136 118.035 268.164 117.463C267.193 116.892 266.351 116.125 265.691 115.211C265.032 114.298 264.57 113.257 264.334 112.156L256.032 73.4911L266.876 71.8429L273.485 102.445L290.752 84.4005V84.4005Z" fill="#A0616A"/>
<path d="M262.054 76.315C266.29 76.315 269.724 72.8838 269.724 68.6511C269.724 64.4185 266.29 60.9872 262.054 60.9872C257.818 60.9872 254.384 64.4185 254.384 68.6511C254.384 72.8838 257.818 76.315 262.054 76.315Z" fill="#A0616A"/>
<path d="M306.784 63.2724C313.81 68.5448 315.879 85.834 311.464 93.425C303.024 107.936 286.385 119.108 285.676 117.556C284.704 115.431 283.011 118.284 283.068 119.218C283.126 120.152 279.921 119.874 280.294 120.862C280.667 121.851 278.138 122.065 277.039 122.639C277.039 122.639 266.985 122.808 263.812 118.224C260.64 113.639 260.215 107.303 260.215 107.303L256.277 102.673L277.156 90.478L275.435 98.7096L285.851 86.5913L288.055 81.7295L291.571 79.9351L292.737 76.2716L295.979 74.8067L308.804 59.8856L306.784 63.2725L306.784 63.2724Z" fill="#3F3D56"/>
<path d="M364.474 205.302C365.351 204.724 366.089 203.962 366.639 203.068C367.188 202.174 367.535 201.171 367.654 200.128C367.774 199.086 367.663 198.03 367.33 197.036C366.997 196.041 366.45 195.131 365.727 194.37L367.202 128.81L354.238 130.825L355.152 194.415C353.954 195.713 353.274 197.406 353.241 199.171C353.208 200.937 353.824 202.654 354.974 203.996C356.123 205.338 357.724 206.212 359.476 206.453C361.227 206.694 363.005 206.284 364.474 205.302V205.302Z" fill="#A0616A"/>
<path d="M365.039 72.9254C365.039 72.9254 364.179 73.5749 368.589 80.2894C369.464 81.621 370.057 86.9902 370.471 93.9966C370.607 96.2792 371.907 97.8828 372.008 100.43C372.094 102.592 370.984 105.672 371.05 107.913C371.085 109.109 371.978 110.149 372.008 111.346C372.021 111.844 371.173 112.502 371.185 112.999C371.198 113.535 371.211 114.069 371.223 114.602C371.526 127.918 371.591 139.945 371.892 139.742C372.534 139.309 370.94 141.548 371.737 141.922C372.534 142.295 371.056 144.15 371.437 145.111C371.901 146.283 371.324 147.575 370.96 148.75C369.908 152.145 369.681 155.06 368.766 156.673C369.852 157.296 370.7 158.262 371.176 159.419C371.652 160.576 371.729 161.859 371.396 163.065L353.124 159.764C350.896 156.198 351.218 152.455 352.736 151.803L352.284 140.198L347.08 80.1626L362.331 73.3585L365.039 72.9255V72.9254Z" fill="#3F3D56"/>
<path d="M251.632 36.0119C251.37 36.0119 251.157 36.1368 251.157 36.2904V38.5179C251.157 38.6715 251.37 38.7963 251.632 38.7963C251.895 38.7963 252.108 38.6715 252.108 38.5179V36.2904C252.108 36.1368 251.895 36.0119 251.632 36.0119Z" fill="#3F3D56"/>
<path d="M251.632 41.9148C251.37 41.9148 251.157 42.0397 251.157 42.1932V46.5091C251.157 46.6626 251.37 46.7875 251.632 46.7875C251.895 46.7875 252.108 46.6626 252.108 46.5091V42.1932C252.108 42.0397 251.895 41.9148 251.632 41.9148Z" fill="#3F3D56"/>
<path d="M278.163 42.6945C278.023 42.7105 277.895 42.7805 277.806 42.8896C277.717 42.9987 277.674 43.1383 277.687 43.2784V52.3293C277.672 52.3999 277.674 52.4728 277.691 52.5429C277.708 52.6129 277.74 52.6783 277.786 52.7342C277.832 52.7901 277.889 52.8352 277.954 52.8661C278.019 52.8971 278.091 52.9132 278.163 52.9132C278.235 52.9132 278.306 52.8971 278.371 52.8661C278.436 52.8352 278.494 52.7901 278.539 52.7342C278.585 52.6783 278.618 52.6129 278.635 52.5429C278.652 52.4728 278.653 52.3999 278.638 52.3293V43.2784C278.651 43.1383 278.609 42.9987 278.52 42.8896C278.431 42.7805 278.303 42.7105 278.163 42.6945V42.6945Z" fill="#3F3D56"/>
<path d="M250.852 48.8202C250.59 48.8202 250.377 48.9451 250.377 49.0986V53.4145C250.377 53.5681 250.59 53.6929 250.852 53.6929C251.115 53.6929 251.328 53.568 251.328 53.4145V49.0986C251.328 48.9451 251.115 48.8202 250.852 48.8202Z" fill="#3F3D56"/>
<path d="M334.259 46.1557C345.078 46.1557 353.848 37.3923 353.848 26.5821C353.848 15.7718 345.078 7.00839 334.259 7.00839C323.441 7.00839 314.67 15.7718 314.67 26.5821C314.67 37.3923 323.441 46.1557 334.259 46.1557Z" fill="#A0616A"/>
<path d="M356.131 35.5756C354.602 38.6337 353.146 40.5463 350.503 42.2558C350.368 41.8661 350.259 41.468 350.178 41.0639C349.896 41.6925 349.621 42.3197 349.333 42.9497C347.661 43.883 349.466 42.443 346.728 43.4866L344.425 39.5369C343.794 37.6621 344.688 35.6201 345.824 33.9976C346.962 32.3818 348.379 30.9003 348.996 29.0217C349.612 27.1431 349.065 24.6543 347.216 23.9551C345.394 23.2568 343.383 24.5815 341.447 24.3514C339.212 24.088 337.692 21.752 337.571 19.5047C337.449 17.2573 338.367 15.0994 339.265 13.0428C336.559 14.9805 328.177 18.452 323.614 18.6178C323.491 17.1956 322.833 15.8728 321.773 14.9158C321.958 16.2106 321.643 17.5274 320.89 18.5978C316.423 18.3689 315.583 24.8528 313.276 22.5049C313.996 22.1429 311.343 14.0849 312.063 13.7229C311.509 12.2058 310.956 10.6932 310.403 9.18492C311.43 9.44343 312.464 9.70715 313.497 9.96424C313.562 9.41275 313.73 8.87833 313.992 8.38899C314.728 7.96945 315.512 7.63885 316.327 7.40417C316.589 7.33411 316.858 7.26265 317.13 7.20444C317.532 7.11488 317.94 7.04853 318.35 7.00574C317.756 6.66159 317.157 6.32546 316.561 5.97472C316.49 5.93448 316.426 5.8928 316.355 5.85256C317.191 5.27814 318.065 4.76002 318.97 4.30163C322.787 2.3063 326.749 0.273146 331.051 0.0244375C333.847 -0.153411 336.618 0.643638 338.892 2.27959C340.852 3.68636 343.225 4.39985 345.637 4.30716C346.81 4.29824 347.97 4.55632 349.028 5.06185C348.543 5.54971 348.013 5.99043 347.444 6.37808C348.686 6.41033 349.921 6.44402 351.164 6.48292C352.556 7.74872 353.73 9.23489 354.639 10.8818C358.993 18.3153 359.988 27.8747 356.131 35.5756H356.131Z" fill="#2F2E41"/>
<path d="M293.225 340.52C293.077 339.542 292.697 338.615 292.117 337.814C291.538 337.013 290.775 336.362 289.892 335.915C281.611 331.68 272.932 328.272 263.981 325.741L255.605 336.775L261.796 325.132C238.882 318.99 214.798 318.648 191.719 324.139L194.94 333.014L189.678 324.647C179.286 327.258 169.225 331.038 159.685 335.915C158.807 336.365 158.048 337.015 157.469 337.814C156.89 338.612 156.508 339.536 156.354 340.51C156.2 341.484 156.279 342.48 156.584 343.418C156.889 344.356 157.411 345.208 158.108 345.906C161.73 346.128 164.121 349.49 166.508 354.299C167.422 355.201 168.594 355.798 169.861 356.009C171.129 356.22 172.43 356.034 173.588 355.477C189.585 347.875 207.075 343.93 224.789 343.93C242.503 343.93 259.994 347.875 275.99 355.477C277.148 356.034 278.449 356.22 279.717 356.009C280.984 355.799 282.155 355.201 283.069 354.299C284.504 350.411 287.462 348.112 291.47 345.906C292.171 345.213 292.695 344.362 293.001 343.425C293.306 342.488 293.383 341.492 293.225 340.52V340.52Z" fill="#6B52DB"/>
<path d="M246.947 378.518C245.113 378.23 243.268 377.979 241.411 377.764L234.134 389.334L239.556 377.567C230.746 376.667 221.871 376.574 213.044 377.288L218.594 389.334L211.123 377.455C208.271 377.725 205.441 378.079 202.631 378.518C201.669 378.66 200.766 379.071 200.027 379.702C199.288 380.334 198.743 381.161 198.453 382.089C198.144 383.024 198.102 384.027 198.331 384.985C198.56 385.943 199.051 386.819 199.749 387.514C202.754 390.455 206.067 394.54 211.512 399.268C212.043 399.805 212.685 400.222 213.393 400.488C214.1 400.754 214.858 400.863 215.612 400.808C218.629 400.585 221.717 400.471 224.789 400.471H224.789C227.861 400.471 230.949 400.585 233.966 400.808C234.72 400.862 235.477 400.752 236.185 400.486C236.893 400.22 237.535 399.805 238.066 399.268C243.689 394.472 246.53 390.074 249.829 387.514C250.527 386.819 251.018 385.943 251.247 384.985C251.476 384.027 251.434 383.024 251.125 382.089C250.836 381.161 250.29 380.334 249.551 379.702C248.812 379.07 247.909 378.66 246.947 378.518V378.518Z" fill="#6B52DB"/>
</svg>
